<svg width="52" height="52" viewBox="0 0 52 52" fill="none" xmlns="http://www.w3.org/2000/svg">
<path d="M3.00041 25.935C3.00041 32.0066 5.41235 37.8295 9.70562 42.1228C13.9989 46.4161 19.8218 48.828 25.8934 48.828C31.965 48.828 37.7879 46.4161 42.0812 42.1228C46.3745 37.8295 48.7864 32.0066 48.7864 25.935C48.7864 19.8634 46.3745 14.0405 42.0812 9.7472C37.7879 5.45393 31.965 3.04199 25.8934 3.04199C19.8218 3.04199 13.9989 5.45393 9.70562 9.7472C5.41235 14.0405 3.00041 19.8634 3.00041 25.935Z" fill="#FFF1DC"/>
<path d="M33.7558 16.653C33.1318 16.653 32.6274 16.1486 32.6274 15.5246V11.5388C32.6274 10.9148 33.1318 10.4104 33.7558 10.4104C34.3798 10.4104 34.8842 10.9148 34.8842 11.5388V15.5272C34.8842 16.1486 34.3798 16.653 33.7558 16.653Z" fill="#FF9552"/>
<path d="M36.3662 12.4644V15.5246C36.3662 16.822 35.0506 17.8776 33.7558 17.8776C32.4584 17.8776 31.1454 16.822 31.1454 15.5246V12.4514H21.5436V15.5272C21.5436 16.8246 20.228 17.8802 18.9332 17.8802C17.6358 17.8802 16.3228 16.8246 16.3228 15.5272V12.454C13.8632 12.5528 11.9002 14.5782 11.9002 17.0612V20.6752H40.6198V17.0612C40.6198 14.6354 38.7452 12.649 36.3662 12.4644Z" fill="#FF7C33"/>
<path d="M18.9332 16.653C18.3092 16.653 17.8048 16.1486 17.8048 15.5246V11.5388C17.8048 10.9148 18.3092 10.4104 18.9332 10.4104C19.5572 10.4104 20.0616 10.9148 20.0616 11.5388V15.5272C20.0616 16.1486 19.5572 16.653 18.9332 16.653Z" fill="#FFA56A"/>
<path d="M11.9002 22.9814V35.0532C11.9002 37.6012 13.9646 39.6656 16.5126 39.6656H36.01C38.558 39.6656 40.6224 37.6012 40.6224 35.0532V22.9814H11.9002ZM19.9862 36.465H15.8704V32.3492H19.9862V36.465ZM19.9862 29.6608H15.8704V25.545H19.9862V29.6608ZM28.3192 36.465H24.2034V32.3492H28.3192V36.465ZM28.3192 29.6608H24.2034V25.545H28.3192V29.6608ZM36.6496 36.465H32.5338V32.3492H36.6496V36.465ZM36.6496 29.6608H32.5338V25.545H36.6496V29.6608Z" fill="#FC7032"/>
<path d="M40.6198 22.9814H11.9002V35.0532C11.9002 37.6012 13.9646 39.6656 16.5126 39.6656H24.2268C27.2948 38.8596 30.1132 37.4348 32.5338 35.529V32.3492H35.8384C38.0952 29.6946 39.7592 26.52 40.6224 23.0308V22.9814H40.6198ZM19.9862 36.465H15.8704V32.3492H19.9862V36.465ZM19.9862 29.6608H15.8704V25.545H19.9862V29.6608ZM28.3192 36.465H24.2034V32.3492H28.3192V36.465ZM28.3192 29.6608H24.2034V25.545H28.3192V29.6608ZM32.5338 29.6608V25.545H36.6496V29.6608H32.5338Z" fill="#FF7C33"/>
<path d="M34.8842 11.5388C34.8842 10.9148 34.3798 10.4104 33.7558 10.4104C33.1318 10.4104 32.6274 10.9148 32.6274 11.5388V15.5272C32.6274 16.1512 33.1318 16.6556 33.7558 16.6556C33.7896 16.6556 33.8208 16.6478 33.852 16.6452C34.3602 15.118 34.7062 13.5415 34.8842 11.9418V11.5388ZM33.4126 17.849C32.2374 17.6852 31.1454 16.705 31.1454 15.5246V12.4514H21.5436V15.5272C21.5436 16.8246 20.2306 17.8802 18.9332 17.8802C17.6358 17.8802 16.3228 16.8246 16.3228 15.5272V12.454C13.8632 12.5528 11.9002 14.5782 11.9002 17.0612V20.6752H32.0554C32.5702 19.7704 33.0226 18.8266 33.4126 17.849ZM11.9002 32.2816C11.9782 32.2816 12.0562 32.2842 12.1342 32.2842C16.5646 32.2842 20.6986 31.0258 24.2034 28.847V25.545H28.3192V25.584C29.1278 24.7754 29.8766 23.9044 30.5578 22.9814H11.9002V32.2816ZM15.8704 25.545H19.9862V29.6608H15.8704V25.545Z" fill="#FF9552"/>
<path d="M26.2626 12.4514H21.5436V15.5272C21.5436 16.8246 20.2306 17.8802 18.9332 17.8802C17.6358 17.8802 16.3228 16.8246 16.3228 15.5272V12.454C13.8632 12.5528 11.9002 14.5782 11.9002 17.0612V20.6752H17.6462C21.1898 18.7369 24.1613 15.9008 26.2626 12.4514Z" fill="#FFA56A"/>
</svg>
